<?xml version="1.0" standalone="no"?>
<svg class="icon" width="200px" height="200.00px" viewBox="0 0 1024 1024" version="1.1"
    xmlns="http://www.w3.org/2000/svg">
    <path
        d="M343.116 94.397h347.999c96.1 0 174 77.903 174 174v487.201c0 96.097-77.9 174-174 174H343.116c-96.1 0-174-77.903-174-174V268.397c-0.001-96.096 77.899-174 174-174z"
        fill="#FFA820" />
    <path
        d="M192.072 181.96c36.682-35.608 79.591-64.834 126.938-85.893-54.383 7.538-100.732 40.197-126.938 85.893zM172.262 788.638c15.436 80.295 86.052 140.961 170.854 140.961h102.1c-107.882-12.593-203.761-64.476-272.954-140.961zM547.646 929.599h143.469c96.1 0 174-77.903 174-174v-25.31c-68.92 108.025-184.012 183.731-317.469 199.31zM864.93 260.535c-4.113-92.447-80.351-166.138-173.815-166.138h-21.062c80.347 34.822 148.18 93.072 194.877 166.138z"
        fill="#FEAC33" />
    <path
        d="M865.115 730.288V268.397c0-2.636-0.069-5.255-0.185-7.863-46.697-73.065-114.53-131.315-194.878-166.137H343.116c-8.181 0-16.226 0.578-24.107 1.67-47.346 21.059-90.255 50.285-126.938 85.893-12.964 22.606-20.989 48.401-22.631 75.917 68.27-96.78 180.942-159.996 308.383-159.996 208.285 0 377.133 168.848 377.133 377.133S686.109 852.148 477.824 852.148c-127.644 0-240.472-63.418-308.709-160.459v63.91c0 11.299 1.09 22.341 3.147 33.039 69.193 76.485 165.073 128.367 272.954 140.961h102.431c133.456-15.579 248.548-91.285 317.468-199.311z"
        fill="#FEB133" />
    <path
        d="M477.824 852.148c208.285 0 377.133-168.848 377.133-377.133S686.109 97.881 477.824 97.881c-127.441 0-240.113 63.215-308.383 159.996a176.291 176.291 0 0 0-0.326 10.521v57.515C218.448 214.757 329.77 137.22 459.217 137.22c175.213 0 317.251 142.038 317.251 317.251S634.43 771.723 459.217 771.723c-129.447 0-240.769-77.537-290.102-188.692v108.658c68.237 97.042 181.065 160.459 308.709 160.459z"
        fill="#FEB633" />
    <path
        d="M459.217 771.723c175.213 0 317.251-142.038 317.251-317.251S634.43 137.22 459.217 137.22c-129.447 0-240.769 77.537-290.102 188.692V583.03c49.333 111.156 160.655 188.693 290.102 188.693zM440.61 176.56c142.141 0 257.369 115.228 257.369 257.369S582.751 691.297 440.61 691.297 183.241 576.069 183.241 433.928 298.469 176.56 440.61 176.56z"
        fill="#FFBC34" />
    <path
        d="M440.61 691.297c142.141 0 257.369-115.228 257.369-257.369S582.751 176.56 440.61 176.56 183.241 291.788 183.241 433.928 298.469 691.297 440.61 691.297z m-18.607-475.398c109.069 0 197.486 88.418 197.486 197.486s-88.418 197.486-197.486 197.486-197.486-88.418-197.486-197.486 88.418-197.486 197.486-197.486z"
        fill="#FFC134" />
    <path
        d="M422.003 610.871c109.069 0 197.486-88.418 197.486-197.486s-88.418-197.486-197.486-197.486-197.486 88.418-197.486 197.486 88.418 197.486 197.486 197.486z m-18.607-355.633c75.996 0 137.604 61.607 137.604 137.604s-61.607 137.604-137.604 137.604-137.604-61.607-137.604-137.604S327.4 255.238 403.396 255.238z"
        fill="#FFC634" />
    <path
        d="M403.396 392.842m-137.604 0a137.604 137.604 0 1 0 275.208 0 137.604 137.604 0 1 0-275.208 0Z"
        fill="#FFCB34" />
    <path
        d="M691.115 112.397c41.67 0 80.846 16.227 110.31 45.692 29.464 29.464 45.691 68.64 45.691 110.309v487.201c0 41.669-16.227 80.844-45.691 110.309-29.464 29.465-68.64 45.692-110.31 45.692H343.116c-41.67 0-80.846-16.227-110.31-45.692-29.464-29.464-45.691-68.64-45.691-110.309V268.397c0-41.669 16.227-80.844 45.691-110.309 29.464-29.465 68.64-45.692 110.31-45.692h347.999m0-17.999H343.116c-96.1 0-174 77.904-174 174v487.201c0 96.097 77.9 174 174 174h347.999c96.1 0 174-77.904 174-174V268.397c0-96.096-77.9-174-174-174z"
        fill="#FFA820" />
    <path
        d="M673.715 228.199H360.516c-28.83 0-52.2 23.37-52.2 52.198V576.2c0 28.827 23.37 52.198 52.2 52.198h313.199c28.83 0 52.2-23.372 52.2-52.198V280.397c0-28.828-23.37-52.198-52.2-52.198z m-156.601 452.4c-38.437 0-69.598 31.16-69.598 69.6 0 38.438 31.162 69.602 69.598 69.602 38.438 0 69.6-31.163 69.6-69.602 0.001-38.441-31.161-69.6-69.6-69.6z"
        fill="#FFE3B4" />
    <path
        d="M249.336 397.213c-9.941 0-18-8.059-18-18v-124.12c0-9.941 8.059-18 18-18s18 8.059 18 18v124.121c0 9.94-8.059 17.999-18 17.999zM249.336 466.819c-9.941 0-18-8.059-18-18v-10.546c0-9.941 8.059-18 18-18s18 8.059 18 18v10.546c0 9.941-8.059 18-18 18z"
        fill="#FFFFFF" />
</svg>