<?xml version="1.0" encoding="UTF-8"?>
<svg width="912px" height="907px" viewBox="0 0 912 907" version="1.1" xmlns="http://www.w3.org/2000/svg" xmlns:xlink="http://www.w3.org/1999/xlink">
    <defs>
        <polygon id="path-1" points="0.0006 0.82 380.7176 0.82 380.7176 724.9999 0.0006 724.9999"></polygon>
    </defs>
    <g id="工具层/手机2" stroke="none" stroke-width="1" fill="none" fill-rule="evenodd">
        <g id="编组" transform="translate(266.000000, 90.000000)">
            <g transform="translate(0.000000, 0.180000)">
                <mask id="mask-2" fill="white">
                    <use xlink:href="#path-1"></use>
                </mask>
                <g id="Clip-2"></g>
                <path d="M346.8706,724.9999 L33.8476,724.9999 C15.1536,724.9999 0.0006,709.8459 0.0006,691.1529 L0.0006,34.6669 C0.0006,15.9729 15.1536,0.8199 33.8476,0.8199 L346.8706,0.8199 C365.5636,0.8199 380.7176,15.9729 380.7176,34.6669 L380.7176,691.1529 C380.7176,709.8459 365.5636,724.9999 346.8706,724.9999" id="Fill-1" fill="#5558DF" mask="url(#mask-2)"></path>
            </g>
            <path d="M357.1694,635.3808 L23.5474,635.3808 C19.7114,635.3808 16.6014,632.2698 16.6014,628.4338 L16.6014,65.5988 C16.6014,61.7618 19.7114,58.6518 23.5474,58.6518 L357.1694,58.6518 C361.0064,58.6518 364.1164,61.7618 364.1164,65.5988 L364.1164,628.4338 C364.1164,632.2698 361.0064,635.3808 357.1694,635.3808" id="Fill-3" fill="#D7E0FF"></path>
            <path d="M230.7993,36.165 L149.9183,36.165 C148.2193,36.165 146.8413,34.787 146.8413,33.088 C146.8413,31.389 148.2193,30.011 149.9183,30.011 L230.7993,30.011 C232.4983,30.011 233.8763,31.389 233.8763,33.088 C233.8763,34.787 232.4983,36.165 230.7993,36.165" id="Fill-5" fill="#D7E0FF"></path>
            <path d="M220.479,683 C220.479,699.635 206.994,713.12 190.359,713.12 C173.724,713.12 160.239,699.635 160.239,683 C160.239,666.365 173.724,652.88 190.359,652.88 C206.994,652.88 220.479,666.365 220.479,683" id="Fill-7" fill="#D7E0FF"></path>
        </g>
    </g>
</svg>