<?xml version="1.0" standalone="no"?>
<svg class="icon" width="200px" height="200.00px" viewBox="0 0 1024 1024" version="1.1"
    xmlns="http://www.w3.org/2000/svg">
    <path
        d="M450.8 932.8L175.4 775.4c-38.6-22.1-62.4-62.9-62.4-107.1V354c0-44.2 23.8-85 62.4-107.1L450.8 89.5c38.5-22 85.8-22 124.3 0l275.4 157.4C889.2 269 913 309.8 913 354v314.2c0 44.2-23.8 85-62.4 107.1L575.2 932.8c-38.5 22-85.9 22-124.4 0z"
        fill="#37AFFA" />
    <path
        d="M118.7 317.1c7.6-15.5 16.1-30.5 25.5-44.9-11.6 13-20.3 28.3-25.5 44.9zM585.5 95.4l-10.3-5.9c-36.2-20.7-80.3-21.9-117.4-3.7 10.9-0.9 22-1.3 33.1-1.3 32.5 0.1 64.2 3.8 94.6 10.9zM113 668.3c0 44.2 23.8 85 62.4 107.1l16.6 9.5c-32.6-34-59.4-73.6-79-117.1v0.5zM913 668.3V354c0-44.2-23.8-85-62.4-107.1l-60.8-34.7c71.2 74.3 115 175.2 115 286.3 0 228.6-185.3 413.9-413.9 413.9-32.6 0-64.3-3.8-94.7-10.9l54.7 31.2c38.5 22 85.8 22 124.3 0l275.4-157.4c38.6-22 62.4-62.8 62.4-107z"
        fill="#37AFFA" />
    <path
        d="M904.8 498.5c0-111.1-43.8-211.9-115-286.3L585.5 95.4c-30.4-7.1-62-10.9-94.6-10.9-11.1 0-22.2 0.4-33.1 1.3-2.3 1.1-4.6 2.4-6.9 3.7l-85.6 48.9c34.1-10.8 70.3-16.6 108-16.6 197.3 0 357.2 159.9 357.2 357.2s-160 357.3-357.3 357.3S116 676.3 116 479c0-105.8 46-200.8 119-266.2l-59.6 34.1c-11.9 6.8-22.4 15.4-31.2 25.3-9.4 14.4-17.9 29.3-25.5 44.9-3.7 11.8-5.7 24.2-5.7 36.9v313.7c19.5 43.6 46.4 83.1 79 117.1l204.2 116.7c30.4 7.1 62.1 10.9 94.7 10.9 228.6 0 413.9-185.3 413.9-413.9z"
        fill="#41B6FB" />
    <path
        d="M116 479c0 197.3 159.9 357.2 357.2 357.2S830.5 676.3 830.5 479s-160-357.2-357.3-357.2c-37.6 0-73.9 5.8-108 16.6L235 212.9C162 278.3 116 373.3 116 479z m339.6-319.9c166 0 300.5 134.5 300.5 300.5S621.6 760.1 455.6 760.1 155.1 625.6 155.1 459.6s134.6-300.5 300.5-300.5z"
        fill="#4CBCFC" />
    <path
        d="M455.6 760.1c166 0 300.5-134.5 300.5-300.5S621.6 159.1 455.6 159.1 155.1 293.6 155.1 459.6s134.6 300.5 300.5 300.5zM438 196.4c134.6 0 243.8 109.1 243.8 243.8S572.6 683.9 438 683.9 194.2 574.8 194.2 440.1 303.4 196.4 438 196.4z"
        fill="#56C3FD" />
    <path
        d="M438 683.9c134.6 0 243.8-109.1 243.8-243.8S572.6 196.4 438 196.4 194.2 305.5 194.2 440.1 303.4 683.9 438 683.9z m-17.6-450.3c103.3 0 187.1 83.7 187.1 187.1s-83.7 187.1-187.1 187.1S233.3 524 233.3 420.7s83.8-187.1 187.1-187.1z"
        fill="#60C9FD" />
    <path
        d="M420.4 607.7c103.3 0 187.1-83.7 187.1-187.1s-83.7-187.1-187.1-187.1-187.1 83.7-187.1 187.1 83.8 187.1 187.1 187.1z m-17.7-336.8c72 0 130.3 58.4 130.3 130.3s-58.4 130.3-130.3 130.3-130.3-58.4-130.3-130.3 58.4-130.3 130.3-130.3z"
        fill="#6BCFFE" />
    <path d="M402.7 401.2m-130.3 0a130.3 130.3 0 1 0 260.6 0 130.3 130.3 0 1 0-260.6 0Z"
        fill="#75D6FF" />
    <path
        d="M513 91.1c18.7 0 37.1 4.9 53.2 14.1l275.4 157.4c32.9 18.8 53.3 53.9 53.3 91.5v314.2c0 37.6-20.4 72.7-53.3 91.5L566.2 917.2c-16.2 9.2-34.6 14.1-53.2 14.1-18.7 0-37.1-4.9-53.2-14.1L184.3 759.8C151.4 741 131 705.9 131 668.3V354c0-37.6 20.4-72.7 53.3-91.5l275.5-157.4c16.1-9.2 34.5-14 53.2-14m0-18c-21.5 0-42.9 5.5-62.2 16.5L175.4 246.9C136.8 269 113 309.8 113 354v314.2c0 44.2 23.8 85 62.4 107.1l275.4 157.4c19.2 11 40.7 16.5 62.2 16.5s42.9-5.5 62.2-16.5l275.4-157.4c38.6-22.1 62.4-62.9 62.4-107.1V354c0-44.2-23.8-85-62.4-107.1L575.2 89.5c-19.3-10.9-40.7-16.4-62.2-16.4z"
        fill="#37AFFA" />
    <path
        d="M483.3 712.1l-131.7-75c-18.5-10.5-29.8-30-29.8-51V436.3c0-21.1 11.4-40.5 29.8-51l131.7-75c18.4-10.5 41-10.5 59.4 0l131.7 75c18.5 10.5 29.8 30 29.8 51V586c0 21.1-11.4 40.5-29.8 51l-131.7 75c-18.4 10.6-41 10.6-59.4 0.1z"
        fill="#B9E8FF" />
    <path
        d="M172.2 417.5c-9.9 0-18-8.1-18-18V361c0-29.2 14.8-55.9 39.7-71.3l34.6-21.5c8.5-5.2 19.5-2.6 24.8 5.8 5.2 8.5 2.6 19.5-5.8 24.8l-34.6 21.5c-14.2 8.8-22.7 24-22.7 40.7v38.5c0 9.9-8.1 18-18 18zM172.2 487.1c-9.9 0-18-8.1-18-18v-10.5c0-9.9 8.1-18 18-18s18 8.1 18 18v10.5c0 9.9-8.1 18-18 18z"
        fill="#FFFFFF" />
</svg>